<?xml version="1.0" encoding="UTF-8"?>
<svg height="128px" viewBox="0 0 128 128" width="128px" xmlns="http://www.w3.org/2000/svg" xmlns:xlink="http://www.w3.org/1999/xlink">
    <linearGradient id="a" gradientTransform="matrix(0.183864 0 0 0.342085 5.339274 269.73088)" gradientUnits="userSpaceOnUse" x1="88.595886" x2="536.595886" y1="-449.394012" y2="-449.394012">
        <stop offset="0" stop-color="#77767b"/>
        <stop offset="0.0500001" stop-color="#c0bfbc"/>
        <stop offset="0.099807" stop-color="#9a9996"/>
        <stop offset="0.900001" stop-color="#9a9996"/>
        <stop offset="0.950001" stop-color="#c0bfbc"/>
        <stop offset="1" stop-color="#77767b"/>
    </linearGradient>
    <path d="m 29.117188 12.007812 h 67.394531 c 4.136719 0 7.488281 3.578126 7.488281 7.996094 v 87.996094 c 0 4.417969 -3.351562 8 -7.488281 8 h -67.394531 c -4.136719 0 -7.488282 -3.582031 -7.488282 -8 v -87.996094 c 0 -4.417968 3.351563 -7.996094 7.488282 -7.996094 z m 0 0" fill="url(#a)"/>
    <path d="m 29.191406 12.003906 h 67.394532 c 4.136718 0 7.488281 3.292969 7.488281 7.359375 v 84.671875 c 0 4.066406 -3.351563 7.363282 -7.488281 7.363282 h -67.394532 c -4.136718 0 -7.488281 -3.296876 -7.488281 -7.363282 v -84.671875 c 0 -4.066406 3.351563 -7.359375 7.488281 -7.359375 z m 0 0" fill="#241f31"/>
    <path d="m 70.105469 37.1875 h 22.667969 c 1.226562 0 2.21875 0.992188 2.21875 2.21875 c 0 1.222656 -0.992188 2.214844 -2.21875 2.214844 h -22.667969 c -1.222657 0 -2.21875 -0.992188 -2.21875 -2.214844 c 0 -1.226562 0.996093 -2.21875 2.21875 -2.21875 z m 0 0" fill="#3584e4"/>
    <path d="m 30.492188 51 h 12.179687 v 2.011719 h -12.179687 z m 0 0" fill="#ffffff"/>
    <g fill="#3584e4">
        <path d="m 67.40625 27.703125 h 11.140625 c 1.5 0 2.714844 0.992187 2.714844 2.210937 c 0 1.222657 -1.214844 2.210938 -2.714844 2.210938 h -11.140625 c -1.496094 0 -2.710938 -0.988281 -2.710938 -2.210938 c 0 -1.21875 1.214844 -2.210937 2.710938 -2.210937 z m 0 0"/>
        <path d="m 32.714844 27.714844 h 26.527344 c 1.222656 0 2.214843 0.992187 2.214843 2.214844 c 0 1.226562 -0.992187 2.21875 -2.214843 2.21875 h -26.527344 c -1.226563 0 -2.21875 -0.992188 -2.21875 -2.21875 c 0 -1.222657 0.992187 -2.214844 2.21875 -2.214844 z m 0 0"/>
        <path d="m 43.710938 37.179688 h 18.878906 c 1.226562 0 2.21875 0.992187 2.21875 2.21875 c 0 1.222656 -0.992188 2.21875 -2.21875 2.21875 h -18.878906 c -1.222657 0 -2.21875 -0.996094 -2.21875 -2.21875 c 0 -1.226563 0.996093 -2.21875 2.21875 -2.21875 z m 0 0"/>
    </g>
</svg>
