<?xml version="1.0" encoding="UTF-8" standalone="no"?>
<svg
   width="750"
   height="625"
   viewBox="0 0 750 625"
   version="1.1"
   sodipodi:docname="stable.svg"
   id="svg685"
   inkscape:version="1.3.2 (091e20e, 2023-11-25, custom)"
   xml:space="preserve"
   xmlns:inkscape="http://www.inkscape.org/namespaces/inkscape"
   xmlns:sodipodi="http://sodipodi.sourceforge.net/DTD/sodipodi-0.dtd"
   xmlns:xlink="http://www.w3.org/1999/xlink"
   xmlns="http://www.w3.org/2000/svg"
   xmlns:svg="http://www.w3.org/2000/svg"><defs
     id="defs687"><linearGradient
       id="linearGradient25"
       inkscape:collect="always"><stop
         style="stop-color:#262232;stop-opacity:1"
         offset="0.54646015"
         id="stop25" /><stop
         style="stop-color:#372a90;stop-opacity:0;"
         offset="1"
         id="stop26" /></linearGradient><pattern
       inkscape:collect="always"
       xlink:href="#pattern15-83"
       preserveAspectRatio="xMidYMid"
       id="pattern25"
       patternTransform="translate(228.99999,235.73614)" /><clipPath
       clipPathUnits="userSpaceOnUse"
       id="clipPath15"><rect
         style="fill:none;stroke:#000000;stroke-linecap:butt;stroke-linejoin:bevel;paint-order:stroke markers fill;stop-color:#000000"
         id="rect15-7"
         width="45.034248"
         height="38.955639"
         x="262.48285"
         y="121.00073" /></clipPath><pattern
       patternUnits="userSpaceOnUse"
       width="45.034248"
       height="38.955639"
       patternTransform="translate(228.99999,235.73614)"
       preserveAspectRatio="xMidYMid"
       id="pattern15-83"
       inkscape:label="Geometric grid"
       inkscape:collect="always"
       inkscape:isstock="true"><path
         id="path12-3"
         style="fill:none;stroke:#000000;stroke-linecap:butt;stroke-linejoin:bevel;paint-order:stroke markers fill"
         d="M 284.9995,134.00078 285,108 l -22.51716,13.00073 0.0171,25.97039 z m -45.01664,-0.0304 22.5171,13.0008 -4.3e-4,-26.0008 L 240,108 Z M 262.51758,95 240,108 262.51758,121 285,108 Z m 67.49906,39.00078 5e-4,-26.00078 -22.51716,13.00073 0.0171,25.97039 z M 285,133.97038 l 22.5171,13.0008 -4.3e-4,-26.0008 L 285.01714,108 Z M 307.53472,95 l -22.51758,13 22.51758,13 22.48242,-13 z m -0.0267,77.97196 5e-4,-26.00078 -22.51716,13.00073 0.0171,25.97039 z m -45.01664,-0.0304 22.5171,13.0008 -4.3e-4,-26.0008 -22.49953,-12.97038 z m 22.53472,-38.97038 -22.51758,13 22.51758,13 22.48242,-13 z m 67.49906,39.00078 5e-4,-26.00078 -22.51716,13.00073 0.0171,25.97039 z m -45.01664,-0.0304 22.5171,13.0008 -4.3e-4,-26.0008 -22.49953,-12.97038 z m 22.53472,-38.97038 -22.51758,13 22.51758,13 22.48242,-13 z"
         transform="translate(-262.48285,-121.00073)"
         clip-path="url(#clipPath15)" /></pattern><linearGradient
       id="swatch22"
       inkscape:swatch="solid"><stop
         style="stop-color:#ffffff;stop-opacity:1;"
         offset="0"
         id="stop22" /></linearGradient><linearGradient
       id="swatch1"
       inkscape:swatch="solid"><stop
         style="stop-color:#ffffff;stop-opacity:1;"
         offset="0"
         id="stop1" /></linearGradient><linearGradient
       inkscape:collect="always"
       xlink:href="#linearGradient25"
       id="linearGradient26"
       x1="1222.5708"
       y1="188.21574"
       x2="1521.3076"
       y2="765.12073"
       gradientUnits="userSpaceOnUse" /></defs><sodipodi:namedview
     pagecolor="#b1b1b1"
     bordercolor="#2a2a2a"
     borderopacity="1"
     inkscape:pageshadow="0"
     inkscape:pageopacity="0"
     inkscape:pagecheckerboard="true"
     inkscape:showpageshadow="false"
     inkscape:document-units="px"
     showgrid="false"
     units="px"
     width="750px"
     height="1140px"
     borderlayer="true"
     inkscape:zoom="1.4005773"
     inkscape:cx="1298.0362"
     inkscape:cy="460.88138"
     inkscape:current-layer="svg685"
     id="namedview670"
     inkscape:blackoutopacity="0.0"
     inkscape:deskcolor="#494949"
     inkscape:window-maximized="1"
     inkscape:window-width="1920"
     inkscape:window-height="1009"
     inkscape:window-x="-8"
     inkscape:window-y="-8"><inkscape:page
       x="0"
       y="0"
       width="750"
       height="625"
       id="page1792"
       inkscape:label="About Screen"
       margin="0"
       bleed="0"
       inkscape:export-filename="stable.png"
       inkscape:export-xdpi="96"
       inkscape:export-ydpi="96" /><inkscape:page
       x="800.33966"
       y="-1.2340232"
       width="960"
       height="360"
       id="page1794"
       inkscape:label="Website Download Splash" /><inkscape:page
       x="931.97632"
       y="401.65384"
       width="700"
       height="220"
       id="page4330"
       inkscape:label="Welcome Screen" /></sodipodi:namedview><rect
     style="fill:url(#linearGradient26);stroke-width:1.109;stop-color:#000000;fill-opacity:1"
     id="rect1266"
     width="700"
     height="220"
     x="931.97632"
     y="401.65381" /><rect
     style="fill:url(#pattern25);stroke-width:1.109;stop-color:#000000;fill-opacity:1"
     id="rect22"
     width="700"
     height="220"
     x="931.97632"
     y="401.65381" /><g
     id="g1"
     transform="translate(935.1248,447.65186)"><path
       d="m 29.117188,12.007812 h 67.394531 c 4.136721,0 7.488281,3.578126 7.488281,7.996094 V 108 c 0,4.41797 -3.35156,8 -7.488281,8 H 29.117188 c -4.136719,0 -7.488282,-3.58203 -7.488282,-8 V 20.003906 c 0,-4.417968 3.351563,-7.996094 7.488282,-7.996094 z m 0,0"
       fill="url(#a)"
       id="path6" /><path
       d="m 29.191406,12.003906 h 67.394532 c 4.136722,0 7.488282,3.292969 7.488282,7.359375 v 84.671879 c 0,4.0664 -3.35156,7.36328 -7.488282,7.36328 H 29.191406 c -4.136718,0 -7.488281,-3.29688 -7.488281,-7.36328 V 19.363281 c 0,-4.066406 3.351563,-7.359375 7.488281,-7.359375 z m 0,0"
       fill="#241f31"
       id="path7"
       style="stroke:#ffffff;stroke-opacity:1" /><path
       d="m 70.105469,37.1875 h 22.667969 c 1.226562,0 2.21875,0.992188 2.21875,2.21875 0,1.222656 -0.992188,2.214844 -2.21875,2.214844 H 70.105469 c -1.222657,0 -2.21875,-0.992188 -2.21875,-2.214844 0,-1.226562 0.996093,-2.21875 2.21875,-2.21875 z m 0,0"
       fill="#3584e4"
       id="path8" /><path
       d="m 30.492188,51 h 12.179687 v 2.011719 H 30.492188 Z m 0,0"
       fill="#ffffff"
       id="path9" /><g
       fill="#3584e4"
       id="g12"><path
         d="m 67.40625,27.703125 h 11.140625 c 1.5,0 2.714844,0.992187 2.714844,2.210937 0,1.222657 -1.214844,2.210938 -2.714844,2.210938 H 67.40625 c -1.496094,0 -2.710938,-0.988281 -2.710938,-2.210938 0,-1.21875 1.214844,-2.210937 2.710938,-2.210937 z m 0,0"
         id="path10" /><path
         d="m 32.714844,27.714844 h 26.527344 c 1.222656,0 2.214843,0.992187 2.214843,2.214844 0,1.226562 -0.992187,2.21875 -2.214843,2.21875 H 32.714844 c -1.226563,0 -2.21875,-0.992188 -2.21875,-2.21875 0,-1.222657 0.992187,-2.214844 2.21875,-2.214844 z m 0,0"
         id="path11" /><path
         d="m 43.710938,37.179688 h 18.878906 c 1.226562,0 2.21875,0.992187 2.21875,2.21875 0,1.222656 -0.992188,2.21875 -2.21875,2.21875 H 43.710938 c -1.222657,0 -2.21875,-0.996094 -2.21875,-2.21875 0,-1.226563 0.996093,-2.21875 2.21875,-2.21875 z m 0,0"
         id="path12" /></g></g><text
     xml:space="preserve"
     style="font-size:53.3333px;fill:#ffffff;fill-opacity:1;stroke:none;stroke-width:1.45512"
     x="1154.3722"
     y="531.08087"
     id="text25"><tspan
       sodipodi:role="line"
       id="tspan25"
       x="1154.3722"
       y="531.08087"
       style="font-style:normal;font-variant:normal;font-weight:normal;font-stretch:normal;font-size:53.3333px;font-family:'Segoe UI';-inkscape-font-specification:'Segoe UI';fill:#ffffff;fill-opacity:1;stroke:none">Textworker</tspan></text><text
     xml:space="preserve"
     style="font-style:normal;font-variant:normal;font-weight:normal;font-stretch:normal;font-size:18.6667px;font-family:'Segoe UI';-inkscape-font-specification:'Segoe UI';fill:#ffffff;fill-opacity:1;stroke:none;stroke-width:1.45512;stroke-opacity:1"
     x="1256.6012"
     y="553.52362"
     id="text26"><tspan
       sodipodi:role="line"
       id="tspan26"
       x="1256.6012"
       y="553.52362"
       style="font-size:18.6667px">Stable</tspan></text></svg>
